<?xml version="1.0" encoding="UTF-8" standalone="no"?>
<!-- Created with Inkscape (http://www.inkscape.org/) -->

<svg
   width="81.491837mm"
   height="16.84515mm"
   viewBox="0 0 81.491837 16.84515"
   version="1.1"
   id="svg1"
   xmlns="http://www.w3.org/2000/svg"
   xmlns:svg="http://www.w3.org/2000/svg">
  <defs
     id="defs1">
    <rect
       x="255.87663"
       y="204.70131"
       width="323.73956"
       height="85.663048"
       id="rect7" />
    <rect
       x="216.93889"
       y="103.46316"
       width="511.75327"
       height="493.95316"
       id="rect6" />
    <rect
       x="262.55167"
       y="214.71387"
       width="328.18961"
       height="84.550545"
       id="rect5" />
    <rect
       x="263.66418"
       y="220.27641"
       width="313.72702"
       height="71.200455"
       id="rect4" />
    <rect
       x="302.60193"
       y="183.56367"
       width="297.0394"
       height="122.37578"
       id="rect3" />
    <rect
       x="225.83894"
       y="184.67618"
       width="386.03998"
       height="127.93832"
       id="rect2" />
  </defs>
  <g
     id="layer1"
     transform="translate(-65.215794,-114.27544)">
    <path
       style="font-size:17.6389px;font-family:Ephesis;-inkscape-font-specification:Ephesis;fill:currentColor;stroke-width:0.264583"
       d="m 69.978297,126.30517 q -0.652639,0 -0.599722,-0.21166 0.07055,-0.28222 0.299861,-0.77611 0.229306,-0.51153 0.635,-1.23473 0.352778,-0.65264 0.723195,-1.25236 0.388056,-0.61736 0.776112,-1.1818 1.128889,-1.64042 1.76389,-2.57528 0.635,-0.93487 0.776112,-1.16417 1.393473,-2.13431 1.393473,-2.82223 0,-0.2293 -0.15875,-0.29986 -0.476251,-0.21166 -1.093612,-0.21166 -1.375834,0 -4.127503,1.1818 -0.864306,0.37042 -1.60514,0.84667 -0.740834,0.47625 -1.375834,1.04069 -1.393473,1.28764 -1.393473,2.36362 0,0.44097 0.229305,0.81139 0.246945,0.35277 1.058334,0.44097 0.670279,0.0882 0.599723,0.21167 -0.176389,0.33514 -0.917223,0.33514 -0.635,0 -1.252362,-0.42334 -0.493889,-0.33514 -0.493889,-1.07597 0,-1.02306 0.740834,-1.97556 0.599722,-0.75847 1.816807,-1.5875 1.411112,-0.98778 2.910418,-1.48167 2.910419,-0.98778 4.145142,-0.98778 1.464029,0 1.834446,0.93487 0.15875,0.40569 -2.116669,3.77472 -1.464028,2.16959 -2.469446,3.79236 -0.987778,1.60514 -1.534584,2.68112 v 0.0353 q 0,0.0882 0.123472,0.2293 0.123473,0.14111 0.123473,0.22931 -0.03528,0.35278 -0.81139,0.35278 z m 10.812646,1.79917 q -0.229305,0 -0.47625,-0.14111 -1.005417,-0.59972 -3.510141,-3.4925 -2.645835,-3.10445 -2.645835,-4.1275 0,-0.19403 0.07055,-0.26459 0.194028,-0.2293 0.81139,-0.65264 0.617361,-0.44097 1.658056,-1.07597 0.864306,-0.54681 1.728613,-1.04069 0.864306,-0.51153 1.728612,-0.97014 2.416529,-1.30528 3.933475,-1.3582 h 0.07055 q 0.405695,0 0.405695,0.22931 0,0.17639 -0.282222,0.19402 -3.333753,0.51153 -9.172229,4.70959 -0.05292,0.0176 -0.05292,0.12347 0,0.44098 0.970139,1.85209 0.493889,0.70555 1.023056,1.41111 0.546806,0.68792 1.146529,1.3582 2.151946,2.38125 3.122085,2.38125 0.211667,0 0.423334,-0.12348 0.211667,-0.12347 0.246945,-0.12347 h 0.07055 q 0.15875,0 0.15875,0.10584 0,0.26458 -0.529167,0.56444 -0.229305,0.14111 -0.47625,0.28222 -0.229306,0.15875 -0.423334,0.15875 z m 2.963352,-2.2225 q -0.352778,0 -0.65264,-0.2293 -0.282222,-0.22931 -0.335139,-0.44098 -0.05292,-0.24694 0.65264,-1.76389 l -0.405695,0.58209 q -0.264584,0.38805 -0.529167,0.68791 -0.264584,0.29987 -0.493889,0.52917 -0.670279,0.635 -1.12889,0.52917 -1.058334,-0.24695 -1.058334,-1.19945 0,-0.75847 0.723195,-1.94028 0.229306,-0.35277 0.582084,-0.70555 0.352778,-0.35278 0.811389,-0.68792 1.181806,-0.86431 2.275418,-0.86431 0.670278,0 1.270001,0.35278 0.194028,0.14111 0.194028,0.29986 0,0.12348 -0.07056,0.12348 -0.01764,0 -0.03528,-0.0176 -0.370417,-0.4057 -0.987779,-0.4057 -0.723195,0 -1.569862,0.54681 -0.846667,0.5468 -1.516946,1.46403 -0.9525,1.32291 -0.9525,2.15194 0,0.47625 0.335139,0.59972 0.423334,0.17639 1.799168,-1.56986 0.564445,-0.68791 0.934862,-1.23472 0.388055,-0.54681 0.617361,-0.93486 0.105833,-0.19403 0.388056,-0.19403 0.529167,0 0.529167,0.3175 0,0.0529 -0.01764,0.0706 -1.534584,2.43417 -1.534584,3.29847 0,0.21167 0.123472,0.22931 0.370417,0.10583 1.234723,-0.54681 1.040695,-0.77611 1.957918,-2.06375 0.194028,-0.26458 0.352778,-0.26458 0.05292,0 0.05292,0.0353 0,0.0882 -0.15875,0.33514 -0.370417,0.58208 -0.829029,1.09361 -0.440972,0.51153 -0.987778,0.9525 -0.776112,0.65264 -1.270001,0.81139 -0.123472,0.0529 -0.299861,0.0529 z m 3.757097,0.10583 q -1.358195,-0.29986 -1.358195,-1.23472 0,-0.26458 0.08819,-0.61736 0.08819,-0.37042 0.282222,-0.81139 l 1.499307,-3.36903 q -0.264583,0.0353 -0.582084,0.0706 -0.3175,0.0353 -0.705556,0.0705 -0.07055,0 -0.07055,-0.12347 0,-0.24695 0.08819,-0.28222 l 1.481668,-0.21167 1.146528,-2.32834 q 0.15875,-0.3175 0.987779,-0.3175 0.388056,0 0.335139,0.0882 -0.388056,0.61737 -0.793751,1.25237 -0.388055,0.61736 -0.776111,1.23472 0.05292,-0.0176 0.229305,-0.0353 0.176389,-0.0176 0.458612,-0.0353 0.211667,-0.0176 0.405695,-0.0176 0.194028,-0.0176 0.370417,-0.0176 0.740833,0 0.705556,0.0705 -0.123473,0.12347 -2.398891,0.47625 -1.92264,3.63361 -1.92264,5.13292 0,0.54681 0.3175,0.65264 0.246945,0.0706 1.252362,-0.65264 0.582084,-0.42333 1.058334,-0.91722 0.47625,-0.51153 0.864306,-1.07598 0.123473,-0.17638 0.229306,-0.17638 0.07056,0 0.07056,0.0706 0,0.0706 -0.08819,0.21166 -0.670278,1.07597 -1.781529,2.02848 -1.075973,0.93486 -1.393473,0.8643 z m 2.116675,-0.0882 q -0.246945,0 -0.246945,-0.15875 0,-0.0176 0.03528,-0.12347 0.829028,-1.5875 1.957918,-4.5332 0.123472,-0.3175 0.423334,-0.5468 0.299861,-0.24695 0.511528,-0.24695 0.229305,0 0.194028,0.24695 -0.176389,0.37042 -0.423334,0.9525 -0.246945,0.58208 -0.582084,1.35819 0.49389,-0.65264 1.464029,-1.46402 0.493889,-0.4057 0.846667,-0.67028 0.370417,-0.26459 0.617362,-0.38806 0.246944,-0.12347 0.546806,-0.12347 0.352782,0 0.599722,0.17639 0.24695,0.17639 0.24695,0.40569 0,0.14111 -0.14112,0.3175 -0.12347,0.15875 -0.26458,0.15875 -0.0706,0 -0.29986,-0.14111 -0.211668,-0.15875 -0.458612,-0.15875 -0.264584,0 -0.617362,0.15875 -2.24014,1.00542 -3.862919,4.5332 -0.105834,0.24694 -0.546806,0.24694 z m 8.731239,-6.40292 q -0.28222,0.0353 -0.61736,-0.0706 -0.3175,-0.10583 -0.3175,-0.26458 0,-0.10583 0.0705,-0.21167 0.0706,-0.12347 0.17639,-0.24694 0.29986,-0.37042 0.35278,-0.45861 0.0529,-0.10584 0.19403,-0.10584 0.40569,0 0.635,0.38806 0.0176,0.0176 0.0176,0.0706 0,0.15875 -0.17639,0.45861 -0.22931,0.42333 -0.33514,0.44097 z m -2.66347,6.36765 q -1.02306,-0.22931 -1.02306,-0.81139 0,-0.28223 0.68792,-1.9932 0.19403,-0.33514 0.51153,-0.97014 0.33513,-0.65264 0.82902,-1.5875 0.0882,-0.14111 0.38806,-0.14111 0.26458,0 0.51153,0.0882 0.26458,0.0706 0.21166,0.14111 -2.32833,3.29848 -2.32833,4.56848 0,0.37041 0.24694,0.37041 0.47625,0 1.49931,-0.67027 1.21709,-0.82903 2.04611,-1.9932 0.17639,-0.28222 0.35278,-0.28222 0.0529,0 0.0529,0.0529 0,0.0882 -0.15875,0.33514 -0.77611,1.21708 -2.15195,2.15194 -1.23472,0.84667 -1.67569,0.74084 z m 6.967374,0 q -0.38805,0.0353 -0.74083,-0.19403 -0.35278,-0.24695 -0.35278,-0.54681 0,-0.5468 1.0407,-2.09903 1.14653,-1.71097 1.14653,-1.97555 0,-0.15875 -0.15875,-0.17639 -0.51153,0.0353 -1.58751,1.02305 -1.53458,1.42875 -2.875144,3.88056 -0.0353,0.0353 -0.19402,0.0353 -0.75848,0 -0.68792,-0.21167 0.19403,-0.51152 0.67028,-1.53458 0.49389,-1.02306 1.270004,-2.57528 0.52916,-1.04069 1.07597,-1.04069 0.17639,0 0.22931,0.0882 0.0353,0.0529 -0.74084,1.51694 -0.37041,0.70556 -0.58208,1.12889 -0.211674,0.4057 -0.299864,0.52917 0.299864,-0.29986 0.705554,-0.74084 0.42334,-0.44097 0.97014,-1.02305 0.86431,-0.97014 1.905,-1.44639 0.24695,-0.10584 0.56445,-0.10584 0.72319,0 0.72319,0.52917 0,0.33514 -0.33513,0.79375 -1.90501,2.66348 -1.90501,3.5807 0,0.19403 0.12348,0.24694 0.28222,0.12348 1.39347,-0.58208 1.30528,-0.84667 2.2225,-2.09903 0.19403,-0.26458 0.35278,-0.26458 0.0529,0 0.0529,0.0353 0,0.0882 -0.15875,0.33514 -0.77612,1.21708 -2.15195,2.15194 -1.23472,0.81139 -1.6757,0.74084 z m 6.8439,0.0176 q -0.35278,0 -0.65264,-0.22931 -0.28222,-0.22931 -0.33514,-0.44097 -0.0529,-0.24695 0.65264,-1.76389 l -0.40569,0.58208 q -0.26459,0.38806 -0.52917,0.68792 -0.26458,0.29986 -0.49389,0.52917 -0.67028,0.635 -1.12889,0.52916 -1.05833,-0.24694 -1.05833,-1.19944 0,-0.75848 0.72319,-1.94028 0.22931,-0.35278 0.58208,-0.70556 0.35278,-0.35278 0.81139,-0.68791 1.18181,-0.86431 2.27542,-0.86431 0.67028,0 1.27,0.35278 0.19403,0.14111 0.19403,0.29986 0,0.12347 -0.0706,0.12347 -0.0176,0 -0.0353,-0.0176 -0.37042,-0.40569 -0.98778,-0.40569 -0.7232,0 -1.56986,0.5468 -0.84667,0.54681 -1.51695,1.46403 -0.9525,1.32292 -0.9525,2.15195 0,0.47625 0.33514,0.59972 0.42333,0.17639 1.79917,-1.56986 0.56444,-0.68792 0.93486,-1.23473 0.38806,-0.5468 0.61736,-0.93486 0.10583,-0.19403 0.38806,-0.19403 0.52916,0 0.52916,0.3175 0,0.0529 -0.0176,0.0706 -1.53459,2.43417 -1.53459,3.29848 0,0.21167 0.12347,0.2293 0.37042,0.10584 1.23473,-0.5468 1.04069,-0.77611 1.95791,-2.06375 0.19403,-0.26459 0.35278,-0.26459 0.0529,0 0.0529,0.0353 0,0.0882 -0.15875,0.33514 -0.37042,0.58209 -0.82903,1.09361 -0.44097,0.51153 -0.98778,0.95251 -0.77611,0.65263 -1.27,0.81138 -0.12347,0.0529 -0.29986,0.0529 z m 11.32419,1.51694 q -0.26458,0 -0.51152,-0.14111 -0.24695,-0.14111 -0.24695,-0.3175 0,-0.45861 1.00542,-4.48028 l 1.11125,-4.46264 q 0.17639,-0.65264 0.17639,-1.23473 0,-1.99319 -2.11667,-1.99319 -0.35278,0 -0.75847,0.0529 -2.18723,0.3175 -3.36903,1.86972 -1.02306,1.30528 -1.02306,3.08681 0,2.2225 1.46403,2.2225 1.16417,0 2.89278,-1.49931 0.10583,-0.0706 0.15875,-0.0706 0.12347,0 0.12347,0.12348 0,0.10583 -0.12347,0.21166 -2.02847,1.76389 -3.4925,1.76389 -0.93486,0 -1.48167,-0.70555 -0.58208,-0.77611 -0.58208,-2.08139 0,-1.92264 1.48166,-3.45723 1.6757,-1.72861 4.26862,-1.94028 0.12347,-0.0176 0.2293,-0.0176 0.10584,0 0.22931,0 1.49931,0 2.25778,0.86431 0.65264,0.7232 0.65264,1.94028 0,0.26458 -0.0353,0.52917 -0.0176,0.26458 -0.0882,0.52916 l -0.91723,3.51014 q -0.75847,2.98098 -1.11125,4.86834 l 0.45861,-0.44097 q 0.51153,-0.51153 1.6757,-1.78153 1.16417,-1.28764 2.96334,-3.31611 1.39347,-1.55223 2.41652,-2.59292 1.0407,-1.05834 1.74626,-1.60514 1.76389,-1.39347 2.46944,-1.39347 0.44097,0 0.54681,0.77611 v 0.0529 q -0.0706,-0.26459 -0.44097,-0.26459 -0.47626,0 -1.34056,0.49389 -0.70556,0.38806 -1.94028,1.5875 -1.21708,1.19945 -2.98097,3.19264 -2.25778,2.55764 -3.63362,4.07459 -1.35819,1.49931 -1.85208,1.95792 -0.0882,0.0882 -0.28223,0.0882 z m 7.83169,-1.56986 q -0.51153,0 -0.89959,-0.24695 -0.51152,-0.35277 -0.51152,-1.02305 0,-0.7232 0.61736,-1.76389 0.82903,-1.3582 2.43417,-2.38125 0.40569,-0.26459 0.81139,-0.26459 0.52916,0 0.75847,0.33514 0.14111,0.19403 0.14111,0.44098 0,0.74083 -1.19945,1.62277 -0.35277,0.24695 -0.75847,0.45862 -0.38805,0.19402 -0.84667,0.28222 l -0.75847,0.15875 q -0.42333,0.75847 -0.42333,1.27 0,0.70555 0.82903,0.70555 0.65264,0 1.5875,-0.5468 1.25236,-0.7232 2.15194,-2.01084 0.14111,-0.21166 0.26459,-0.21166 0.0529,0 0.0529,0.0706 0,0.0882 -0.12347,0.26458 -1.71097,2.57528 -3.86292,2.82222 -0.0705,0.0176 -0.14111,0.0176 -0.0529,0 -0.12347,0 z m 0,-2.68111 q 0.49389,0 1.27,-0.44098 1.09361,-0.61736 1.53458,-1.5875 0.12348,-0.24694 0.12348,-0.40569 0,-0.15875 -0.12348,-0.15875 -0.2293,0 -0.93486,0.56444 -0.51153,0.44098 -1.00542,0.9525 -0.47625,0.49389 -0.91722,1.05834 -0.0176,0.0176 0.0529,0.0176 z m 2.96335,2.75167 q -0.24695,0 -0.24695,-0.15875 0,-0.0176 0.0353,-0.12348 0.82903,-1.5875 1.95792,-4.53319 0.12347,-0.3175 0.42333,-0.54681 0.29986,-0.24695 0.51153,-0.24695 0.2293,0 0.19403,0.24695 -0.17639,0.37042 -0.42334,0.9525 -0.24694,0.58208 -0.58208,1.3582 0.49389,-0.65264 1.46403,-1.46403 0.49389,-0.4057 0.84666,-0.67028 0.37042,-0.26459 0.61737,-0.38806 0.24694,-0.12347 0.5468,-0.12347 0.35278,0 0.59972,0.17639 0.24695,0.17639 0.24695,0.40569 0,0.14112 -0.14111,0.3175 -0.12347,0.15875 -0.26459,0.15875 -0.0705,0 -0.29986,-0.14111 -0.21166,-0.15875 -0.45861,-0.15875 -0.26458,0 -0.61736,0.15875 -2.24014,1.00542 -3.86292,4.5332 -0.10583,0.24695 -0.5468,0.24695 z m 6.22651,-0.0706 q -0.51153,0 -0.89958,-0.24695 -0.51153,-0.35278 -0.51153,-1.02306 0,-0.72319 0.61736,-1.76389 0.82903,-1.35819 2.43417,-2.38125 0.4057,-0.26458 0.81139,-0.26458 0.52917,0 0.75847,0.33514 0.14111,0.19403 0.14111,0.44097 0,0.74083 -1.19944,1.62278 -0.35278,0.24694 -0.75847,0.45861 -0.38806,0.19403 -0.84667,0.28222 l -0.75847,0.15875 q -0.42334,0.75848 -0.42334,1.27 0,0.70556 0.82903,0.70556 0.65264,0 1.5875,-0.54681 1.25236,-0.72319 2.15195,-2.01083 0.14111,-0.21167 0.26458,-0.21167 0.0529,0 0.0529,0.0706 0,0.0882 -0.12347,0.26459 -1.71098,2.57528 -3.86292,2.82222 -0.0706,0.0176 -0.14111,0.0176 -0.0529,0 -0.12348,0 z m 0,-2.68112 q 0.49389,0 1.27,-0.44097 1.09362,-0.61736 1.53459,-1.5875 0.12347,-0.24695 0.12347,-0.4057 0,-0.15875 -0.12347,-0.15875 -0.22931,0 -0.93486,0.56445 -0.51153,0.44097 -1.00542,0.9525 -0.47625,0.49389 -0.91722,1.05833 -0.0176,0.0176 0.0529,0.0176 z m 2.62821,7.97279 q -0.67028,0 -0.67028,-0.67028 0,-0.54681 0.47625,-1.30528 0.29986,-0.47625 0.75848,-1.02306 0.47625,-0.52916 1.12889,-1.12889 1.16416,-1.12889 2.46944,-1.95791 0.29986,-0.74084 0.51153,-1.41112 0.22931,-0.67028 0.38806,-1.25236 -0.12348,0.21167 -1.3582,1.65806 -1.49931,1.76389 -2.06375,1.76389 -0.0706,0 -0.10583,-0.0176 l -0.52917,-0.28222 q -0.24695,-0.14112 -0.29986,-0.26459 -0.0529,-0.14111 -0.0529,-0.28222 0,-0.47625 0.28222,-1.3582 0.28223,-0.88194 0.88195,-2.15194 0.26458,-0.56445 0.59972,-0.56445 0.24695,0 0.47625,0.37042 l -0.77611,1.53458 q -0.82903,1.62278 -0.82903,2.25778 0,0.42334 0.28222,0.42334 0.56445,0 2.11667,-1.92264 0.51153,-0.61736 0.93486,-1.18181 0.44098,-0.58208 0.79375,-1.12889 0.12348,-0.17639 0.35278,-0.17639 0.42334,0 0.42334,0.3175 0,0.0706 -0.0529,0.15875 -0.14111,0.49389 -0.38806,1.21709 -0.2293,0.70555 -0.56444,1.67569 0.56444,-0.33514 0.89958,-0.33514 0.14111,0 0.14111,0.0706 0,0.17639 -0.44097,0.33514 -0.17639,0.0705 -0.38806,0.15875 -0.19402,0.0882 -0.42333,0.21167 -1.23472,3.06917 -2.98097,5.06236 -1.05834,1.19945 -1.9932,1.19945 z m 0.37042,-0.37042 q 0.33514,0 0.81139,-0.54681 1.56986,-1.76389 2.75167,-4.62139 -2.34598,1.74625 -3.49251,3.63361 -0.38805,0.61737 -0.38805,1.09362 0,0.44097 0.3175,0.44097 z"
       id="text1"
       aria-label="Katrina Verey" />
    <text
       xml:space="preserve"
       transform="scale(0.26458333)"
       id="text2"
       style="font-style:normal;font-variant:normal;font-weight:normal;font-stretch:normal;font-size:66.6667px;font-family:Ephesis;-inkscape-font-specification:Ephesis;text-align:start;writing-mode:lr-tb;direction:ltr;white-space:pre;shape-inside:url(#rect2);fill:currentColor;fill-opacity:1" />
    <text
       xml:space="preserve"
       transform="scale(0.26458333)"
       id="text3"
       style="font-style:normal;font-variant:normal;font-weight:normal;font-stretch:normal;font-size:66.6667px;font-family:Ephesis;-inkscape-font-specification:Ephesis;text-align:start;writing-mode:lr-tb;direction:ltr;white-space:pre;shape-inside:url(#rect3);fill:currentColor;fill-opacity:1" />
    <text
       xml:space="preserve"
       transform="scale(0.26458333)"
       id="text4"
       style="font-style:normal;font-variant:normal;font-weight:normal;font-stretch:normal;font-size:66.6667px;font-family:Ephesis;-inkscape-font-specification:Ephesis;text-align:start;writing-mode:lr-tb;direction:ltr;white-space:pre;shape-inside:url(#rect4);fill:currentColor;fill-opacity:1" />
    <text
       xml:space="preserve"
       transform="scale(0.26458333)"
       id="text5"
       style="font-style:normal;font-variant:normal;font-weight:normal;font-stretch:normal;font-size:66.6667px;font-family:Ephesis;-inkscape-font-specification:Ephesis;text-align:start;writing-mode:lr-tb;direction:ltr;white-space:pre;shape-inside:url(#rect5);fill:currentColor;fill-opacity:1" />
    <text
       xml:space="preserve"
       transform="scale(0.26458333)"
       id="text6"
       style="font-style:normal;font-variant:normal;font-weight:normal;font-stretch:normal;font-size:66.6667px;font-family:Ephesis;-inkscape-font-specification:Ephesis;text-align:start;writing-mode:lr-tb;direction:ltr;white-space:pre;shape-inside:url(#rect6);fill:currentColor;fill-opacity:1" />
    <text
       xml:space="preserve"
       transform="scale(0.26458333)"
       id="text7"
       style="font-style:normal;font-variant:normal;font-weight:normal;font-stretch:normal;font-size:66.6667px;font-family:Ephesis;-inkscape-font-specification:Ephesis;text-align:start;writing-mode:lr-tb;direction:ltr;white-space:pre;shape-inside:url(#rect7);fill:currentColor;fill-opacity:1" />
  </g>
</svg>
