<svg xmlns="http://www.w3.org/2000/svg" width="308.001" height="63.667" viewBox="0 0 81.492 16.845"><defs><path id="f" d="M255.877 204.701h323.74v85.663h-323.74z"/><path id="e" d="M216.939 103.463h511.753v493.953H216.939z"/><path id="d" d="M262.552 214.714h328.19v84.551h-328.19z"/><path id="c" d="M263.664 220.276h313.727v71.2H263.664z"/><path id="b" d="M302.602 183.564h297.039V305.94H302.602z"/><path id="a" d="M225.839 184.676h386.04v127.938h-386.04z"/></defs><path d="M69.978 126.305q-.652 0-.6-.211.071-.283.3-.777.23-.511.635-1.234.353-.653.724-1.253.388-.617.776-1.181 1.129-1.64 1.764-2.576.635-.935.776-1.164 1.393-2.134 1.393-2.822 0-.23-.159-.3-.476-.212-1.093-.212-1.376 0-4.128 1.182-.864.37-1.605.847-.74.476-1.376 1.04-1.393 1.288-1.393 2.364 0 .441.23.811.246.353 1.058.441.67.089.6.212-.177.335-.918.335-.635 0-1.252-.423-.494-.335-.494-1.076 0-1.023.74-1.976.6-.758 1.817-1.587 1.412-.988 2.91-1.482 2.911-.988 4.146-.988 1.464 0 1.834.935.16.406-2.116 3.775-1.464 2.17-2.47 3.792-.987 1.606-1.534 2.682v.035q0 .088.123.23.124.14.124.228-.036.353-.812.353m10.813 1.8q-.23 0-.476-.142-1.006-.6-3.51-3.492-2.646-3.105-2.646-4.128 0-.194.07-.264.194-.23.812-.653.617-.441 1.658-1.076.864-.547 1.728-1.04.865-.512 1.729-.97 2.416-1.306 3.933-1.359h.071q.406 0 .406.23 0 .176-.283.193-3.333.512-9.172 4.71-.053.018-.053.123 0 .441.97 1.852.494.706 1.023 1.412.547.688 1.147 1.358 2.152 2.381 3.122 2.381.212 0 .423-.123.212-.124.247-.124h.07q.16 0 .16.106 0 .265-.53.564-.229.141-.476.283-.229.158-.423.158m2.963-2.223q-.352 0-.652-.23-.283-.229-.335-.44-.053-.247.652-1.764l-.406.582q-.264.388-.529.688-.264.3-.494.529-.67.635-1.128.529-1.059-.247-1.059-1.2 0-.758.723-1.94.23-.352.582-.705.353-.353.812-.688 1.182-.865 2.275-.865.67 0 1.27.353.194.141.194.3 0 .124-.07.124-.018 0-.036-.018-.37-.406-.987-.406-.724 0-1.57.547t-1.517 1.464q-.953 1.323-.953 2.152 0 .476.336.6.423.176 1.799-1.57.564-.688.935-1.235.388-.547.617-.935.106-.194.388-.194.53 0 .53.318 0 .053-.019.07-1.534 2.435-1.534 3.299 0 .212.123.23.37.105 1.235-.548 1.04-.776 1.958-2.063.194-.265.353-.265.053 0 .053.035 0 .089-.159.336-.37.582-.83 1.093-.44.512-.987.953-.776.652-1.27.811-.123.053-.3.053m3.757.106q-1.358-.3-1.358-1.235 0-.265.088-.617.089-.37.283-.812l1.499-3.369q-.265.035-.582.07-.318.036-.706.071-.07 0-.07-.123 0-.247.088-.282l1.482-.212 1.146-2.328q.159-.318.988-.318.388 0 .335.088-.388.618-.794 1.253l-.776 1.234q.053-.017.23-.035.176-.018.458-.035.212-.018.406-.018.194-.017.37-.017.741 0 .706.07-.124.124-2.4.476-1.922 3.634-1.922 5.133 0 .547.318.653.247.07 1.252-.653.582-.423 1.058-.917.477-.512.865-1.076.123-.176.229-.176.07 0 .07.07t-.088.212q-.67 1.076-1.781 2.028-1.076.935-1.394.865m2.117-.089q-.247 0-.247-.158 0-.018.035-.124.83-1.587 1.958-4.533.124-.317.424-.547.3-.247.511-.247.23 0 .194.247-.176.37-.423.953-.247.582-.582 1.358.494-.653 1.464-1.464.494-.406.846-.67.37-.265.618-.388.247-.124.547-.124.352 0 .6.177.246.176.246.405 0 .141-.14.318-.124.158-.265.158-.071 0-.3-.14-.212-.16-.459-.16-.264 0-.617.16-2.24 1.005-3.863 4.533-.106.246-.547.246m8.731-6.402q-.282.035-.617-.071-.318-.106-.318-.265 0-.105.07-.211.072-.124.177-.247.3-.37.353-.459.053-.106.194-.106.406 0 .635.388.018.018.018.071 0 .159-.177.459-.229.423-.335.44m-2.663 6.367q-1.023-.23-1.023-.811 0-.282.688-1.993.194-.336.511-.97.335-.653.83-1.588.087-.141.387-.141.265 0 .512.088.264.07.211.141-2.328 3.299-2.328 4.569 0 .37.247.37.476 0 1.5-.67 1.217-.83 2.046-1.993.176-.283.352-.283.053 0 .053.053 0 .088-.159.335-.776 1.217-2.151 2.152-1.235.847-1.676.741m6.967 0q-.388.036-.74-.194-.353-.247-.353-.547 0-.546 1.04-2.099 1.147-1.71 1.147-1.975 0-.159-.159-.177-.511.036-1.587 1.023-1.535 1.43-2.876 3.881-.035.035-.194.035-.758 0-.688-.211.195-.512.67-1.535.495-1.023 1.27-2.575.53-1.04 1.077-1.04.176 0 .23.087.034.053-.742 1.517-.37.706-.582 1.13-.212.405-.3.528.3-.3.706-.74.423-.442.97-1.024.864-.97 1.905-1.446.247-.106.564-.106.724 0 .724.53 0 .334-.336.793-1.905 2.664-1.905 3.58 0 .195.124.248.282.123 1.393-.582 1.306-.847 2.223-2.1.194-.264.353-.264.053 0 .053.035 0 .089-.16.335-.775 1.218-2.151 2.152-1.235.812-1.676.741m6.844.018q-.353 0-.653-.23-.282-.229-.335-.44-.053-.247.653-1.764l-.406.582q-.264.388-.529.688-.264.3-.494.529-.67.635-1.129.529-1.058-.247-1.058-1.2 0-.758.723-1.94.23-.353.582-.705.353-.353.812-.688 1.181-.865 2.275-.865.67 0 1.27.353.194.141.194.3 0 .124-.07.124-.018 0-.036-.018-.37-.406-.988-.406-.723 0-1.57.547-.846.547-1.516 1.464-.953 1.323-.953 2.152 0 .476.335.6.424.176 1.8-1.57.564-.688.934-1.235.388-.547.618-.935.105-.194.388-.194.529 0 .529.318 0 .053-.018.07-1.534 2.435-1.534 3.299 0 .212.123.23.37.105 1.235-.548 1.04-.776 1.958-2.063.194-.265.353-.265.052 0 .052.035 0 .089-.158.335-.37.583-.83 1.094-.44.512-.987.953-.776.652-1.27.811-.124.053-.3.053m11.324 1.517q-.264 0-.511-.141t-.247-.318q0-.458 1.005-4.48l1.112-4.463q.176-.652.176-1.235 0-1.993-2.117-1.993-.353 0-.758.053-2.187.318-3.37 1.87-1.022 1.305-1.022 3.087 0 2.222 1.464 2.222 1.164 0 2.892-1.5.106-.07.16-.07.123 0 .123.124 0 .106-.124.211-2.028 1.764-3.492 1.764-.935 0-1.482-.705-.582-.776-.582-2.082 0-1.922 1.482-3.457 1.675-1.728 4.268-1.94.124-.018.23-.018h.229q1.5 0 2.258.865.652.723.652 1.94 0 .264-.035.53-.018.264-.088.528l-.917 3.51q-.759 2.981-1.112 4.869l.459-.441q.511-.512 1.676-1.782 1.164-1.287 2.963-3.316 1.393-1.552 2.416-2.593 1.041-1.058 1.747-1.605 1.764-1.393 2.47-1.393.44 0 .546.776v.053q-.07-.265-.441-.265-.476 0-1.34.494-.706.388-1.94 1.587-1.218 1.2-2.982 3.193-2.258 2.558-3.633 4.075-1.359 1.499-1.853 1.958-.088.088-.282.088m7.832-1.57q-.512 0-.9-.247-.511-.353-.511-1.023 0-.723.617-1.764.83-1.358 2.434-2.381.406-.265.812-.265.529 0 .758.335.141.194.141.441 0 .741-1.2 1.623-.352.247-.758.459-.388.194-.846.282l-.759.159q-.423.758-.423 1.27 0 .705.829.705.653 0 1.588-.547 1.252-.723 2.151-2.01.142-.212.265-.212.053 0 .053.07 0 .089-.124.265-1.71 2.575-3.862 2.822-.07.018-.142.018zm0-2.681q.494 0 1.27-.441 1.094-.618 1.535-1.588.123-.247.123-.405 0-.16-.123-.16-.23 0-.935.565-.512.441-1.006.953-.476.494-.917 1.058-.018.018.053.018m2.963 2.751q-.247 0-.247-.158 0-.018.036-.124.829-1.587 1.958-4.533.123-.317.423-.547.3-.247.511-.247.23 0 .195.247-.177.37-.424.953-.247.582-.582 1.358.494-.653 1.464-1.464.494-.406.847-.67.37-.265.617-.388.247-.124.547-.124.353 0 .6.176.247.177.247.406 0 .141-.142.318-.123.158-.264.158-.07 0-.3-.14-.212-.16-.459-.16-.264 0-.617.16-2.24 1.005-3.863 4.532-.106.247-.547.247m6.227-.07q-.512 0-.9-.247-.511-.353-.511-1.023 0-.723.617-1.764.83-1.358 2.434-2.381.406-.265.812-.265.529 0 .758.335.141.194.141.441 0 .741-1.2 1.623-.352.247-.758.459-.388.194-.846.282l-.759.159q-.423.758-.423 1.27 0 .705.829.705.653 0 1.587-.547 1.253-.723 2.152-2.01.141-.212.265-.212.053 0 .053.07 0 .089-.124.265-1.71 2.575-3.863 2.822-.07.018-.14.018zm0-2.681q.494 0 1.27-.441 1.093-.618 1.534-1.588.124-.247.124-.405 0-.16-.124-.16-.229 0-.934.565-.512.441-1.006.953-.476.494-.917 1.058-.018.018.053.018m2.628 7.973q-.67 0-.67-.67 0-.548.476-1.306.3-.476.759-1.023.476-.53 1.128-1.129 1.165-1.129 2.47-1.958.3-.74.511-1.411.23-.67.388-1.252-.123.211-1.358 1.658-1.5 1.764-2.064 1.764-.07 0-.105-.018l-.53-.282q-.246-.141-.3-.265-.052-.141-.052-.282 0-.476.282-1.358t.882-2.152q.264-.565.6-.565.247 0 .476.37l-.776 1.535q-.83 1.623-.83 2.258 0 .423.283.423.564 0 2.117-1.922.511-.618.934-1.182.441-.582.794-1.129.124-.176.353-.176.423 0 .423.317 0 .07-.053.159-.14.494-.388 1.217-.229.706-.564 1.676.564-.335.9-.335.14 0 .14.07 0 .177-.44.335-.177.07-.388.16-.194.087-.424.21-1.234 3.07-2.98 5.063-1.059 1.2-1.994 1.2m.37-.37q.336 0 .812-.548 1.57-1.764 2.752-4.621-2.346 1.746-3.493 3.634-.388.617-.388 1.093 0 .441.317.441" aria-label="Katrina Verey" style="font-size:17.6389px;font-family:Ephesis;-inkscape-font-specification:Ephesis;fill:currentColor;stroke-width:.264583" transform="translate(-65.216 -114.275)"/></svg>